<svg t="1618888716486" class="icon" viewBox="0 0 1024 1024" version="1.1" xmlns="http://www.w3.org/2000/svg" p-id="3268" width="200" height="200"><path d="M733.815467 445.201067v320.785066l-455.714134-0.682666V436.309333L505.9584 243.029333l229.256533 195.1744a17.732267 17.732267 0 0 0-1.399466 7.0144m62.685866-2.304L517.6832 205.533867a18.090667 18.090667 0 0 0-23.415467-0.017067L211.165867 445.713067a18.0736 18.0736 0 0 0 23.415466 27.579733l7.389867-6.280533V783.36c0 9.966933 8.072533 18.0736 18.0736 18.0736L751.889067 802.133333c9.984 0 18.056533-8.0896 18.056533-18.0736V467.7632l3.1232 2.628267a18.0736 18.0736 0 0 0 23.432533-27.4944" p-id="3269"></path><path d="M393.250133 479.112533h237.499734v170.1888h-74.2912a8.8064 8.8064 0 0 0-6.519467 2.935467L512 694.2208l-37.956267-41.984a8.789333 8.789333 0 0 0-6.485333-2.935467h-74.325333v-170.1888zM375.466667 469.947733v188.5184c0 5.0688 3.976533 9.147733 8.874666 9.147734h79.36l41.7792 46.267733c1.706667 1.860267 4.061867 2.9184 6.536534 2.9184a8.840533 8.840533 0 0 0 6.485333-2.901333l41.813333-46.2848h79.325867c4.932267 0 8.891733-4.078933 8.891733-9.147734V469.947733a9.0112 9.0112 0 0 0-8.874666-9.147733H384.341333c-4.898133 0-8.874667 4.096-8.874666 9.147733z" p-id="3270"></path><path d="M443.733333 546.133333a17.066667 17.066667 0 1 0 0 34.133334 17.066667 17.066667 0 0 0 0-34.133334M512 580.266667a17.066667 17.066667 0 1 0 0-34.133334 17.066667 17.066667 0 0 0 0 34.133334M580.266667 580.266667a17.066667 17.066667 0 1 0 0-34.133334 17.066667 17.066667 0 0 0 0 34.133334" p-id="3271"></path></svg>
