<svg t="1618985651391" class="icon" viewBox="0 0 1024 1024" version="1.1" xmlns="http://www.w3.org/2000/svg" p-id="4811" width="200" height="200"><path d="M948.535261 157.451008c-6.249331-4.759397-14.545274-6.083555-22.019503-3.510964L78.525448 414.560784c-8.849552 3.022847-14.976086 10.93198-15.541975 20.046568-0.566912 9.121751 4.547573 17.691941 12.955056 21.725814l296.857035 142.537344-4.567016 141.646044c-0.274246 8.582469 4.433986 16.575514 12.183484 20.665669 7.730055 4.105504 17.194614 3.581572 24.416086-1.331321l134.167722-69.479421c10.55438-7.167237 13.146415-21.316491 5.78782-31.597649-7.356548-10.280134-21.869077-12.821003-32.429597-5.638417l-96.110965 43.62559 3.579525-111.074771c0.283456-8.895601-4.792143-17.138332-12.984732-21.069875L146.277528 439.512059l761.503541-231.072773-79.214133 598.96977L627.830075 688.215374c-11.083429-6.408967-25.365714-2.817162-31.900547 7.977695-6.55223 10.788717-2.889817 24.697495 8.18338 31.082926l232.486982 137.498584c3.647063 2.100848 7.749498 3.165086 11.855002 3.165086 3.6399 0 7.275707-0.829901 10.621918-2.494821 7.111978-3.551896 11.855002-10.411117 12.57848-18.163685l85.769432-669.892053C958.131827 169.703053 954.787662 162.191986 948.535261 157.451008L948.535261 157.451008zM848.26865 272.582165c-9.102309-8.849552-23.844058-8.837272-32.937157 0.041956L471.917096 565.148477c-9.083889 8.873088-9.064446 23.245424 0.049119 32.094976 4.547573 4.418636 10.491958 6.630001 16.442484 6.630001 5.968945 0 11.938913-2.225691 16.488533-6.671956l343.422583-292.52538C857.397564 295.807123 857.383238 281.43888 848.26865 272.582165L848.26865 272.582165zM848.26865 272.582165" p-id="4812" fill="#dbdbdb"></path></svg>
